<?xml version="1.0" encoding="UTF-8" standalone="no"?>
<!-- Created with Inkscape (http://www.inkscape.org/) -->

<svg
   xmlns:dc="http://purl.org/dc/elements/1.1/"
   xmlns:cc="http://creativecommons.org/ns#"
   xmlns:rdf="http://www.w3.org/1999/02/22-rdf-syntax-ns#"
   xmlns:svg="http://www.w3.org/2000/svg"
   xmlns="http://www.w3.org/2000/svg"
   xmlns:sodipodi="http://sodipodi.sourceforge.net/DTD/sodipodi-0.dtd"
   xmlns:inkscape="http://www.inkscape.org/namespaces/inkscape"
   version="1.1"
   id="svg2"
   width="256"
   height="256"
   viewBox="0 0 256 256"
   sodipodi:docname="logo.svg"
   inkscape:version="0.92.2 2405546, 2018-03-11">
  <metadata
     id="metadata8">
    <rdf:RDF>
      <cc:Work
         rdf:about="">
        <dc:format>image/svg+xml</dc:format>
        <dc:type
           rdf:resource="http://purl.org/dc/dcmitype/StillImage" />
        <dc:title />
      </cc:Work>
    </rdf:RDF>
  </metadata>
  <defs
     id="defs6" />
  <sodipodi:namedview
     pagecolor="#ffffff"
     bordercolor="#666666"
     borderopacity="1"
     objecttolerance="10"
     gridtolerance="10"
     guidetolerance="10"
     inkscape:pageopacity="0"
     inkscape:pageshadow="2"
     inkscape:window-width="1906"
     inkscape:window-height="347"
     id="namedview4"
     showgrid="false"
     inkscape:zoom="0.65186405"
     inkscape:cx="-38.770887"
     inkscape:cy="71.03051"
     inkscape:window-x="6"
     inkscape:window-y="725"
     inkscape:window-maximized="0"
     inkscape:current-layer="svg2" />
  <g
     id="g12">
    <path
       style="fill:#d0d0d0"
       d="M 26.25,241.33772 C 25.5625,241.06031 25,240.34565 25,239.74959 c 0,-0.59606 5.927859,-7.07026 13.17302,-14.3871 l 13.173019,-13.30336 -4.99201,-5.27956 C 24.846567,184.03321 14.062923,155.10031 15.314715,123.5 16.468606,94.371115 27.52897,69.237528 48.377401,48.368301 69.088717,27.636326 94.101402,16.564962 123.12895,15.281023 c 18.99978,-0.840392 17.47717,-2.138393 18.33397,15.629421 0.39616,8.215315 0.43211,15.844931 0.0799,16.954704 -0.59231,1.866201 -1.4818,2.017115 -11.84161,2.009083 C 111.84001,49.860384 98.823155,53.562144 85,62.586452 78.133257,67.069337 69.046172,75.749094 64.030394,82.616097 48.062432,104.47752 45.183688,136.56111 56.936488,161.67764 c 3.728349,7.96773 9.785121,16.77693 14.982899,21.79171 l 4.114201,3.96934 13.373619,-13.34609 c 7.739449,-7.72352 13.841073,-13.05719 14.483203,-12.66033 0.78236,0.48352 1.10959,12.28594 1.10959,40.01976 0,34.94497 -0.1765,39.40172 -1.58179,39.94098 -1.88825,0.72459 -75.365933,0.67194 -77.16821,-0.0553 z m 93.25,-0.22963 -4,-0.60809 -0.85967,-14.86159 c -1.13822,-19.67702 -1.2461,-19.45851 9.30512,-18.84771 26.79064,1.55089 53.50765,-11.65662 68.90113,-34.06114 15.58281,-22.68008 17.8107,-54.02047 5.63906,-79.326353 C 194.9541,86.060834 183.96557,71.307756 181.25299,70.266842 180.33197,69.91341 175.25215,74.26617 167.14302,82.357295 160.17407,89.310783 153.68578,95 152.72462,95 c -1.6385,0 -1.73125,-2.480832 -1.48609,-39.75 L 151.5,15.5 190.43808,15.238082 c 25.72691,-0.173052 39.28755,0.08754 39.96807,0.768072 0.70666,0.706653 -3.17072,5.239364 -12.35137,14.438951 l -13.38136,13.408961 7.25413,8.322967 c 18.17067,20.847964 27.60267,44.080049 28.78983,70.912587 2.08264,47.0726 -24.94143,90.57467 -67.72428,109.01936 -17.3288,7.47086 -39.26798,11.16167 -53.4931,8.99911 z"
       id="path26"
       inkscape:connector-curvature="0" />
    <path
       style="fill:#c2c2c2"
       d="m 27.45296,239.92389 c -0.388104,-0.62797 4.733084,-6.57066 11.933591,-13.8479 C 46.323948,219.06467 52,212.9799 52,212.55427 52,212.12865 49.672677,209.24232 46.828171,206.14021 34.088437,192.24672 24.032789,174.08799 19.339217,156.5 c -2.416044,-9.05352 -2.670776,-11.70366 -2.691354,-28 -0.02059,-16.30601 0.222846,-18.91001 2.586693,-27.66954 5.565532,-20.623773 15.077918,-37.20943 29.844304,-52.036091 20.626641,-20.710838 45.424927,-31.37294 75.64989,-32.525913 11.58675,-0.441993 14.32296,-0.285207 14.7361,0.844384 0.27904,0.762938 0.6261,8.13716 0.77125,16.38716 l 0.2639,15 -14,0.639434 c -10.32069,0.471385 -15.83965,1.22446 -21,2.865498 C 79.454022,60.287797 60.227622,79.519418 52.019455,105.5 c -2.83188,8.9635 -3.822175,26.74451 -2.05192,36.84276 2.630491,15.00537 11.320451,31.89322 21.421134,41.62928 l 4.63952,4.47204 13.249312,-13.22204 C 96.564623,167.94992 102.8635,162 103.27501,162 c 0.41151,0 0.63048,17.6625 0.4866,39.25 L 103.5,240.5 65.816409,240.76196 c -26.588657,0.18483 -37.883757,-0.0619 -38.363449,-0.83807 z m 91.91521,0.36153 -3.13183,-0.39451 -0.71715,-14.34591 c -0.39444,-7.89024 -0.45289,-15.1782 -0.12991,-16.19545 0.52652,-1.65828 1.85527,-1.8614 12.84899,-1.96414 18.51729,-0.17306 31.37404,-4.3091 46.26173,-14.88248 29.19038,-20.73129 40.44182,-60.06438 26.93091,-94.145792 C 197.1009,87.434635 184.05166,69 180.65001,69 180.001,69 173.85849,74.625 167,81.5 160.14151,88.375 153.96076,94 153.26501,94 152.26662,94 152,85.780071 152,55 V 16 h 38.44098 c 21.14254,0 38.66845,0.368037 38.94645,0.817861 0.27801,0.449823 -5.32043,6.63083 -12.44098,13.735571 C 209.8259,37.658173 204,43.948809 204,44.532624 c 0,0.583814 1.85789,2.840307 4.12865,5.014428 11.24331,10.764828 22.48331,29.966657 27.24718,46.54765 6.8096,23.701378 5.95751,49.352278 -2.37995,71.643988 -12.59112,33.66469 -42.1984,60.37442 -76.7463,69.23544 -12.38722,3.17714 -27.31016,4.51695 -36.88141,3.31129 z"
       id="path24"
       inkscape:connector-curvature="0" />
    <path
       style="fill:#b9b9b9"
       d="M 27,239.23499 C 27,238.81424 32.625,232.85849 39.5,226 46.375,219.14151 52,212.90298 52,212.1366 52,211.37023 49.171706,207.74506 45.714902,204.08066 32.282347,189.84144 23.10604,171.95614 18.340182,150.7253 15.97783,140.20154 15.998771,117.01097 18.38057,106 27.060398,65.873486 54.645424,34.796562 92.985022,21.951617 107.47424,17.097282 130.79145,14.449413 137.2905,16.92035 c 2.34928,0.893192 2.44144,1.328902 3.12353,14.765964 0.38655,7.615088 0.42474,14.570273 0.0849,15.455966 -0.51738,1.348273 -2.52053,1.620366 -12.30843,1.671889 C 108.91784,48.91562 92.250854,54.721267 78.026117,66.288032 59.213742,81.585209 48.891678,103.37886 48.79765,128 48.73358,144.77778 52.352164,157.80185 60.730372,170.94841 65.179034,177.92897 73.821935,188 75.36395,188 76.005284,188 82.141507,182.375 89,175.5 95.858493,168.625 102.03924,163 102.73499,163 103.7331,163 104,171.12309 104,201.5 V 240 H 65.5 C 44.325,240 27,239.65575 27,239.23499 Z m 89.73064,0.13498 C 116.43601,238.89149 116.03859,231.75 115.84747,223.5 l -0.34747,-15 13,-0.61978 c 7.15,-0.34088 15.025,-1.15476 17.5,-1.80861 24.81499,-6.55567 43.59776,-21.9471 53.8519,-44.1286 5.56327,-12.03431 7.52785,-21.17897 7.39951,-34.44301 -0.20921,-21.62242 -8.59426,-41.892394 -23.13827,-55.934325 l -4.075,-3.934325 -13.31477,13.184325 C 159.40024,88.067054 153.08638,94 152.69255,94 152.29873,94 152.0943,76.5625 152.23826,55.25 L 152.5,16.5 190.75,16.238117 C 221.24964,16.029298 229,16.234963 229,17.253123 229,17.955412 223.375,24.141507 216.5,31 209.625,37.858493 204,43.846122 204,44.305841 c 0,0.459719 2.73911,3.895213 6.08692,7.634432 8.2346,9.197361 13.35698,16.834123 18.48576,27.559727 26.82319,56.09417 3.82375,122.29147 -51.95415,149.53513 -14.81694,7.23706 -26.74049,10.09041 -44.73537,10.70532 -8.03926,0.27472 -14.8579,0.108 -15.15252,-0.37048 z"
       id="path22"
       inkscape:connector-curvature="0" />
    <path
       style="fill:#a1a1a1"
       d="m 28,239.24571 c 0,-0.42808 5.204912,-5.94599 11.566471,-12.26202 6.361559,-6.31603 12.001409,-12.26935 12.533001,-13.22961 0.78158,-1.41183 -0.531558,-3.46457 -6.862321,-10.72741 C 32.618395,188.55006 24.785917,173.72168 19.734249,154.74478 17.837284,147.61871 17.546942,143.98978 17.594467,128 17.655197,107.56714 18.653423,102.06294 25.30079,85.507463 35.641343,59.753998 58.574622,36.494437 84.204744,25.765458 c 14.219684,-5.952477 23.522086,-7.9296 39.995496,-8.500596 l 14.70025,-0.509536 0.58774,2.372337 c 0.32326,1.304785 0.45815,8.381186 0.29976,15.725334 L 139.5,48.205994 l -12,0.226181 c -12.69917,0.23936 -20.2572,1.7668 -30.997642,6.26447 -18.535678,7.762 -35.863049,25.739727 -42.946319,44.558243 -11.042507,29.337242 -4.837328,61.334022 16.289287,83.995112 2.435597,2.6125 5.148022,4.75 6.027612,4.75 0.879589,0 7.323807,-5.71185 14.320484,-12.69299 8.791409,-8.7719 12.892758,-12.24601 13.276478,-11.24605 0.30539,0.79583 0.43709,18.09517 0.29267,38.443 L 103.5,239.5 65.75,239.76203 C 44.9875,239.90614 28,239.6738 28,239.24571 Z m 89.75,-0.32581 C 116.20682,238.02108 116,236.13374 116,222.95031 V 208 l 11.25,-0.007 c 17.34444,-0.0108 31.38962,-4.00054 44.33716,-12.59463 C 206.91904,171.9464 218.25527,125.40523 197.5934,88.62909 193.64545,81.602114 182.49765,68 180.68655,68 180.01744,68 173.85849,73.625 167,80.5 160.14151,87.375 153.96076,93 153.26501,93 c -1.84166,0 -1.85666,-75.988872 -0.015,-76.02351 13.78204,-0.259212 74.27177,0.211946 74.64121,0.581386 0.28111,0.281108 -5.20442,6.239342 -12.19005,13.240519 C 208.71552,37.799573 203,43.916833 203,44.392306 c 0,0.475474 2.82696,3.86122 6.28212,7.523881 12.16214,12.89251 21.69471,30.13749 26.4657,47.878001 2.35219,8.746422 2.61682,11.534472 2.67713,28.205812 0.0624,17.2341 -0.12204,19.18427 -2.69492,28.5 -3.11067,11.26298 -9.54486,25.36468 -15.84178,34.7202 -9.40134,13.96784 -27.11596,29.41505 -42.65116,37.19196 -8.47663,4.2434 -22.38675,8.50863 -32.93361,10.09837 -11.27205,1.69904 -24.00229,1.8953 -26.55348,0.40937 z"
       id="path20"
       inkscape:connector-curvature="0" />
    <path
       style="fill:#4d4d4d"
       d="m 30,238.23437 c 0,-0.4211 5.4,-6.15156 12,-12.73437 6.6,-6.58281 12,-12.55608 12,-13.27395 0,-0.71787 -2.833686,-4.3249 -6.29708,-8.01563 C 34.677285,190.32979 26.086889,174.58244 20.857944,155 17.945475,144.09278 17.210664,120.44671 19.419934,108.72512 27.548778,65.596374 58.686234,32.121192 101,21.020215 c 9.07219,-2.380079 35.36276,-4.086413 36.98793,-2.400623 0.46681,0.484225 0.998,7.180408 1.18041,14.880408 l 0.33166,14 -10,0.151129 C 111.24307,47.927044 97.696502,51.871272 83.901305,60.92768 48.809682,83.96498 37.296578,131.28242 57.848865,168 c 5.026292,8.9797 15.336154,21 18.011782,21 0.794326,0 6.83036,-5.625 13.413408,-12.5 C 95.857102,169.625 101.63851,164 102.12162,164 102.61051,164 103,180.62803 103,201.5 V 239 H 66.5 C 46.425,239 30,238.65547 30,238.23437 Z m 88.37564,3.2e-4 c -1.69373,-1.10673 -2.93765,-27.76931 -1.34158,-28.75574 0.67445,-0.41683 4.88019,-0.67649 9.3461,-0.57701 32.92313,0.73333 63.3185,-19.2403 75.93952,-49.90194 10.11556,-24.57488 7.20738,-54.18384 -7.43814,-75.729558 -3.78702,-5.571267 -11.45918,-14.400673 -13.56477,-15.610827 -1.08086,-0.621214 -4.78074,2.443158 -14.18676,11.75 C 160.13151,86.334327 154.08923,92 153.70273,92 c -0.3865,0 -0.70306,-16.7625 -0.70347,-37.25 l -7.5e-4,-37.25 30.25075,0.264321 c 16.63791,0.145377 33.17574,0.370377 36.75074,0.5 l 6.5,0.235679 -12,12.285211 c -6.6,6.756867 -12.15063,12.72126 -12.33474,13.254208 -0.1841,0.532948 2.45732,4.004603 5.86982,7.714789 15.16165,16.484229 24.42411,34.918144 28.51295,56.745792 2.48908,13.28756 1.56841,35.58989 -2.00069,48.46499 -11.90005,42.92798 -46.69204,73.98095 -90.24386,80.54554 -10.39912,1.56746 -24.05361,1.94883 -25.92784,0.72416 z"
       id="path18"
       inkscape:connector-curvature="0" />
    <path
       style="fill:#757575"
       d="M 77.370245,214.75 C 64.753562,201.9625 52.301985,188.50818 49.700075,184.85152 44.156056,177.06008 36.942282,162.02416 34.658577,153.5 20.6974,101.38849 52.227472,47.83591 104.79419,34.377435 c 9.93894,-2.544632 30.23178,-3.815117 32.95581,-2.063282 0.79888,0.513765 1.25,3.260935 1.25,7.612136 v 6.808255 l -12.75,0.540749 c -14.17067,0.601002 -23.38643,2.760374 -33.578631,7.867911 -27.218124,13.639601 -43.773203,38.788658 -45.375743,68.930936 -0.863542,16.24241 2.395781,30.53865 10.098744,44.29575 3.560248,6.35841 13.802348,19.1422 16.849911,21.03138 1.481001,0.91808 3.671715,-0.84187 14.513904,-11.65999 C 95.781478,170.73357 101.85905,165 102.2639,165 c 0.40486,0 0.7361,16.425 0.7361,36.5 0,29.91053 -0.24285,36.5 -1.34517,36.5 -0.73984,0 -11.667902,-10.4625 -24.284585,-23.25 z M 117.75,224.44357 c -0.4125,-0.4273 -0.75,-3.97198 -0.75,-7.87707 v -7.10016 l 11.25,-0.16301 C 172.1254,208.66758 206.59349,175.76584 208.70969,132.5 209.55322,115.25412 205.96431,100.57745 197.28046,85.760727 193.16784,78.743603 182.42577,67 180.11971,67 c -0.90803,0 -7.0369,5.4 -13.61971,12 -6.58281,6.6 -12.31327,12 -12.73437,12 -1.04687,0 -0.9768,-71.751457 0.0707,-72.398848 1.52373,-0.941714 49.47237,48.380506 54.52041,56.082236 10.83788,16.535256 15.79221,32.841042 15.89581,52.316612 0.0366,6.875 -0.46942,15.28122 -1.12443,18.68049 -5.86506,30.43773 -25.73083,56.30958 -53.62812,69.84167 -12.47951,6.05341 -23.25067,8.63238 -38.5,9.21815 -6.875,0.26408 -12.8375,0.13055 -13.25,-0.29674 z"
       id="path16"
       inkscape:connector-curvature="0" />
    <path
       style="fill:#01babc;fill-opacity:1"
       d="M 76.836659,211.65647 C 58.077747,192.28438 51.093427,184.35994 47.194354,178.02415 17.893757,130.41228 36.187335,67.563376 86.5,42.986779 c 13.79221,-6.737183 23.98748,-9.181769 39,-9.351282 l 12,-0.135497 0.29079,6.534994 0.29079,6.534993 -6.87152,-0.388275 C 117.5271,45.408555 100.70419,49.641435 87,57.305583 81.990617,60.107108 76.511259,64.488741 70.5,70.5 c -31.115672,31.11567 -32.686569,78.20859 -3.746459,112.31272 8.653719,10.19787 7.470599,10.43034 22.319394,-4.38549 L 102,165.52886 v 35.73557 C 102,220.91899 101.86005,237 101.689,237 101.51795,237 90.334397,225.59541 76.836659,211.65647 Z M 118,216.63273 v -6.36727 l 12.75,-0.55813 c 14.62151,-0.64004 21.41866,-2.24442 32.94025,-7.7751 20.83139,-9.99964 37.2426,-29.89327 43.55424,-52.79632 3.26444,-11.84569 2.99166,-31.58972 -0.60022,-43.44338 C 202.27814,91.283718 196.7322,81.630883 187.14292,71.75 184.07375,68.5875 180.88002,66 180.04574,66 c -0.83427,0 -7.03586,5.505747 -13.7813,12.234994 L 154,90.469988 V 54.994142 19.518295 l 20.57537,20.490853 c 25.11527,25.012108 32.0779,33.431633 38.44617,46.490852 6.02842,12.362294 8.98106,23.80031 9.67729,37.48805 C 224.85308,166.34036 197.52611,205.78024 157,218.80844 147.39141,221.89738 139.84595,223 128.31634,223 H 118 Z"
       id="path14"
       inkscape:connector-curvature="0" />
  </g>
</svg>
